<svg width="18" height="18" viewBox="0 0 18 18" fill="none" xmlns="http://www.w3.org/2000/svg">
<rect width="18" height="18" rx="2" fill="#FFF5F5"/>
<path d="M14.625 7.875C14.625 7.04657 13.9534 6.375 13.125 6.375H9.375M14.625 7.875C14.625 3.975 12.125 3.5 10.875 3.75V1.5M14.625 7.875V12M1.5 12.75H4.5M1.5 9.375H4.5M15.75 9.375H12.75M7.125 12.75H10.125M7.125 9.375H9.375M2.25 2.25L6.375 6.375M15.75 15.75L14.4924 14.4924M6.375 6.375H4.125C3.29657 6.375 2.625 7.04657 2.625 7.875V13.875C2.625 14.7034 3.29657 15.375 4.125 15.375H13.125C13.7333 15.375 14.2571 15.0129 14.4924 14.4924M6.375 6.375L14.4924 14.4924" stroke="#FA5252" stroke-linecap="round" stroke-linejoin="round"/>
</svg>
