<svg width="18" height="18" viewBox="0 0 18 18" fill="none" xmlns="http://www.w3.org/2000/svg">
<rect width="18" height="18" rx="2" fill="#FFF5F5"/>
<path d="M4.875 14.2499C3.675 14.2499 3.375 12.75 3.375 12C3.375 11 3.375 8.54996 3.375 6.74996M4.875 14.2499L3.375 16.4999M4.875 14.2499H11.625M7.125 4.49996V2.62496C6.85929 2.27068 6.02876 1.77833 4.5 1.84161M7.125 4.49996C8.38276 4.49996 9.74225 4.49996 10.875 4.49996M7.125 4.49996C6.73711 4.49996 6.3589 4.49996 6 4.49996C5.59594 4.49996 5.21636 4.49996 4.875 4.49996C4.78174 4.49996 4.6711 4.51561 4.55279 4.55276M10.875 4.49996C11.8799 4.49996 12.7063 4.49996 13.125 4.49996C14.325 4.49996 14.625 5.99996 14.625 6.74996C14.625 7.74996 14.625 10.2 14.625 12C14.625 12.2819 14.6005 12.5308 14.5571 12.75C14.4429 13.328 14.1981 13.6997 13.9285 13.9284M10.875 4.49996V2.62496C11.375 2.12495 13.05 1.34994 15.75 2.24996M2.25 2.24997L4.55279 4.55276M15.75 15.75L13.9285 13.9284M13.9285 13.9284L4.55279 4.55276" stroke="#FA5252" stroke-linecap="round"/>
</svg>
