<svg width="18" height="18" viewBox="0 0 18 18" fill="none" xmlns="http://www.w3.org/2000/svg">
<rect width="18" height="18" rx="2" fill="#E7F5FF"/>
<path d="M3 15L5.625 12.375M11.25 3L8.625 5.625M15 6.75L12.375 9.375M7.33881 4.5L13.5001 10.6613L11.9596 12.2017C11.558 12.6194 11.0771 12.9528 10.5451 13.1824C10.0131 13.412 9.44064 13.5332 8.86124 13.5389C8.28184 13.5445 7.70712 13.4346 7.17072 13.2155C6.63432 12.9964 6.147 12.6725 5.73728 12.2628C5.32756 11.8531 5.00367 11.3657 4.78456 10.8293C4.56545 10.2929 4.45553 9.71822 4.46121 9.13882C4.46689 8.55942 4.58807 7.98698 4.81766 7.45497C5.04725 6.92297 5.38064 6.4421 5.79831 6.0405L7.33881 4.5Z" stroke="#2393F4" stroke-linecap="round" stroke-linejoin="round"/>
</svg>
