<svg width="18" height="18" viewBox="0 0 18 18" fill="none" xmlns="http://www.w3.org/2000/svg">
<rect width="18" height="18" rx="2" fill="#E7F5FF"/>
<path d="M5.25007 7.49998H7.50007V5.24998L4.87507 2.62498C5.7148 2.22394 6.6582 2.09309 7.57537 2.25045C8.49255 2.40781 9.33838 2.84565 9.99639 3.50366C10.6544 4.16168 11.0922 5.00751 11.2496 5.92468C11.407 6.84186 11.2761 7.78526 10.8751 8.62498L15.3751 13.125C15.6734 13.4234 15.8411 13.828 15.8411 14.25C15.8411 14.6719 15.6734 15.0766 15.3751 15.375C15.0767 15.6733 14.672 15.841 14.2501 15.841C13.8281 15.841 13.4234 15.6733 13.1251 15.375L8.62507 10.875C7.78535 11.276 6.84195 11.4069 5.92477 11.2495C5.0076 11.0922 4.16177 10.6543 3.50375 9.9963C2.84574 9.33829 2.4079 8.49245 2.25054 7.57528C2.09318 6.65811 2.22403 5.7147 2.62507 4.87498L5.25007 7.49998Z" stroke="#2393F4" stroke-linecap="round" stroke-linejoin="round"/>
</svg>
