<svg width="36" height="36" viewBox="0 0 36 36" fill="none" xmlns="http://www.w3.org/2000/svg">
<g id="Solkos Symbol">
<path id="Rectangle 1" d="M21.9661 0H31.1186C33.8145 0 36 2.18546 36 4.88136V36H21.9661V0Z" fill="url(#paint0_linear_7322_634)"/>
<path id="Rectangle 2" d="M14.0339 36L4.88136 36C2.18546 36 7.82207e-06 33.8145 8.05975e-06 31.1186L1.08033e-05 -1.21657e-06L14.0339 0L14.0339 36Z" fill="url(#paint1_linear_7322_634)"/>
<path id="Vector 1" d="M21.9661 19.4256V12.1008C24.8768 14.2881 31.2285 19.0288 33.3491 20.4938C35.4698 21.9587 36 23.5458 36 24.1562V29.3445L21.9661 19.4256Z" fill="url(#paint2_linear_7322_634)"/>
<path id="Vector 3" d="M14.0339 16.5744L14.0339 23.8992C11.1232 21.7119 4.77153 16.9712 2.65085 15.5062C0.530176 14.0413 6.73107e-06 12.4542 6.78489e-06 11.8438L7.24231e-06 6.65547L14.0339 16.5744Z" fill="url(#paint3_linear_7322_634)"/>
<path id="Vector 2" d="M21.9661 36H36V29.2835L21.9661 19.3614V36Z" fill="url(#paint4_linear_7322_634)"/>
<path id="Vector 4" d="M14.0339 -1.33514e-05L9.09632e-06 -1.4568e-05L8.50417e-06 6.71651L14.0339 16.6386L14.0339 -1.33514e-05Z" fill="url(#paint5_linear_7322_634)"/>
</g>
<defs>
<linearGradient id="paint0_linear_7322_634" x1="22.2712" y1="0.302521" x2="34.7433" y2="36.0659" gradientUnits="userSpaceOnUse">
<stop stop-color="white"/>
<stop offset="0.746234" stop-color="#C9C7C4"/>
</linearGradient>
<linearGradient id="paint1_linear_7322_634" x1="13.7288" y1="35.6975" x2="1.25673" y2="-0.0658855" gradientUnits="userSpaceOnUse">
<stop stop-color="white"/>
<stop offset="0.746234" stop-color="#C9C7C4"/>
</linearGradient>
<linearGradient id="paint2_linear_7322_634" x1="22.122" y1="16.3736" x2="35.9261" y2="27.3447" gradientUnits="userSpaceOnUse">
<stop stop-color="#F9475F"/>
<stop offset="0.64802" stop-color="#F13549"/>
<stop offset="1" stop-color="#A62D45"/>
</linearGradient>
<linearGradient id="paint3_linear_7322_634" x1="13.878" y1="19.6264" x2="0.0738542" y2="8.65535" gradientUnits="userSpaceOnUse">
<stop offset="0.0863866" stop-color="#A62D45"/>
<stop offset="0.451837" stop-color="#F13549"/>
<stop offset="1" stop-color="#F9475F"/>
</linearGradient>
<linearGradient id="paint4_linear_7322_634" x1="28.983" y1="23.1776" x2="28.983" y2="36" gradientUnits="userSpaceOnUse">
<stop stop-color="#F13549"/>
<stop offset="1" stop-color="#472240"/>
</linearGradient>
<linearGradient id="paint5_linear_7322_634" x1="7.01695" y1="22.8403" x2="7.01696" y2="-1.35094e-05" gradientUnits="userSpaceOnUse">
<stop stop-color="#472240"/>
<stop offset="0.464424" stop-color="#F13549"/>
</linearGradient>
</defs>
</svg>
