<svg width="18" height="18" viewBox="0 0 18 18" fill="none" xmlns="http://www.w3.org/2000/svg">
<rect width="18" height="18" rx="2" fill="#FFF9DB"/>
<path d="M4.875 14.2499H13.125M4.875 14.2499C3.675 14.2499 3.375 12.75 3.375 12C3.375 11 3.375 8.54996 3.375 6.74996C3.375 4.94996 4.375 4.49996 4.875 4.49996C5.51957 4.49996 6.30043 4.49996 7.125 4.49996M4.875 14.2499L3.375 16.4999M13.125 14.2499C13.625 14.2499 14.625 13.8 14.625 12C14.625 10.2 14.625 7.74996 14.625 6.74996C14.625 5.99996 14.325 4.49996 13.125 4.49996C12.7063 4.49996 11.8799 4.49996 10.875 4.49996M13.125 14.2499L14.625 16.4999M7.125 4.49996V2.62496C6.75 2.12496 5.25 1.34996 2.25 2.24996M7.125 4.49996C8.38276 4.49996 9.74225 4.49996 10.875 4.49996M10.875 4.49996V2.62496C11.375 2.12495 13.05 1.34994 15.75 2.24996" stroke="#E67700" stroke-linecap="round"/>
</svg>
