<svg width="18" height="18" viewBox="0 0 18 18" fill="none" xmlns="http://www.w3.org/2000/svg">
<rect width="18" height="18" rx="2" fill="#FFF9DB"/>
<path d="M9 3.75C9 3.35218 8.84197 2.97064 8.56066 2.68934C8.27936 2.40804 7.89783 2.25 7.5 2.25C7.10218 2.25 6.72065 2.40804 6.43934 2.68934C6.15804 2.97064 6 3.35218 6 3.75V10.125C5.42808 10.4552 4.98109 10.9649 4.72836 11.575C4.47564 12.1852 4.4313 12.8616 4.60222 13.4995C4.77315 14.1374 5.14978 14.7011 5.67372 15.1031C6.19765 15.5052 6.8396 15.7231 7.5 15.7231C8.1604 15.7231 8.80235 15.5052 9.32629 15.1031C9.85022 14.7011 10.2269 14.1374 10.3978 13.4995C10.5687 12.8616 10.5244 12.1852 10.2716 11.575C10.0189 10.9649 9.57193 10.4552 9 10.125V9M11.25 8.625V4.125M11.25 4.125L13.5 6.375M11.25 4.125L9 6.375" stroke="#E67700" stroke-linecap="round" stroke-linejoin="round"/>
</svg>
