<svg width="18" height="18" viewBox="0 0 18 18" fill="none" xmlns="http://www.w3.org/2000/svg">
<g id="adjustments">
<path id="Vector" d="M4.5 9C5.32843 9 6 8.32843 6 7.5C6 6.67157 5.32843 6 4.5 6M4.5 9C3.67157 9 3 8.32843 3 7.5C3 6.67157 3.67157 6 4.5 6M4.5 9V15M4.5 6V3M9 13.5C9.82843 13.5 10.5 12.8284 10.5 12C10.5 11.1716 9.82843 10.5 9 10.5M9 13.5C8.17157 13.5 7.5 12.8284 7.5 12C7.5 11.1716 8.17157 10.5 9 10.5M9 13.5V15M9 10.5V3M13.5 6.75C14.3284 6.75 15 6.07843 15 5.25C15 4.42157 14.3284 3.75 13.5 3.75M13.5 6.75C12.6716 6.75 12 6.07843 12 5.25C12 4.42157 12.6716 3.75 13.5 3.75M13.5 6.75V15M13.5 3.75V3" stroke="#868E96" stroke-linecap="round" stroke-linejoin="round"/>
</g>
</svg>
